<?xml version="1.0" encoding="UTF-8"?>
<svg width="960px" height="560px" viewBox="0 0 960 560" version="1.1" xmlns="http://www.w3.org/2000/svg" xmlns:xlink="http://www.w3.org/1999/xlink">
    <!-- Generator: Sketch 43.1 (39012) - http://www.bohemiancoding.com/sketch -->
    <title>Artboard</title>
    <desc>Created with Sketch.</desc>
    <defs></defs>
    <g id="Page-1" stroke="none" stroke-width="1" fill="none" fill-rule="evenodd">
        <g id="Artboard">
            <rect id="Rectangle-3" stroke="#FFFFFF" stroke-width="5" x="57.5" y="57.5" width="365" height="445" rx="15"></rect>
            <rect id="Rectangle-4" fill-opacity="0.498103487" fill="#FFFFFF" x="95" y="210" width="250" height="45"></rect>
            <rect id="Rectangle-4" fill-opacity="0.498103487" fill="#FFFFFF" x="95" y="190" width="200" height="10"></rect>
            <rect id="Rectangle-4" fill-opacity="0.498103487" fill="#FFFFFF" x="95" y="115" width="290" height="45"></rect>
            <rect id="Rectangle-4" fill-opacity="0.498103487" fill="#FFFFFF" x="95" y="90" width="95" height="10"></rect>
            <rect id="Rectangle-4" fill-opacity="0.498103487" fill="#FFFFFF" x="95" y="305" width="290" height="119.577637"></rect>
            <rect id="Rectangle-4" fill-opacity="0.498103487" fill="#FFFFFF" x="95" y="285" width="140" height="10"></rect>
            <rect id="Rectangle-3" stroke="#FFFFFF" stroke-width="5" x="537.5" y="57.5" width="365" height="445" rx="15"></rect>
            <rect id="Rectangle-4" fill-opacity="0.498103487" fill="#FFFFFF" x="575" y="140" width="250" height="45"></rect>
            <rect id="Rectangle-4" fill-opacity="0.498103487" fill="#FFFFFF" x="575" y="120" width="200" height="10"></rect>
            <rect id="Rectangle-4" fill-opacity="0.498103487" fill="#FFFFFF" x="575" y="235" width="25" height="25"></rect>
            <rect id="Rectangle-4" fill-opacity="0.498103487" fill="#FFFFFF" x="615" y="240" width="230" height="15"></rect>
            <rect id="Rectangle-4" fill-opacity="0.498103487" fill="#FFFFFF" x="575" y="281.25" width="24.5762712" height="25"></rect>
            <rect id="Rectangle-4" fill-opacity="0.498103487" fill="#FFFFFF" x="614.322034" y="286.25" width="250.677966" height="15"></rect>
            <rect id="Rectangle-4" fill-opacity="0.498103487" fill="#FFFFFF" x="575" y="327.5" width="25" height="25"></rect>
            <rect id="Rectangle-4" fill-opacity="0.498103487" fill="#FFFFFF" x="615" y="332.5" width="205" height="15"></rect>
            <rect id="Rectangle-4" fill-opacity="0.498103487" fill="#FFFFFF" x="575" y="373.75" width="25" height="25"></rect>
            <rect id="Rectangle-4" fill-opacity="0.498103487" fill="#FFFFFF" x="615" y="378.75" width="215" height="15"></rect>
            <rect id="Rectangle-4" fill-opacity="0.498103487" fill="#FFFFFF" x="575" y="420" width="25" height="25"></rect>
            <rect id="Rectangle-4" fill-opacity="0.498103487" fill="#FFFFFF" x="615" y="425" width="235" height="15"></rect>
        </g>
    </g>
</svg>