<?xml version="1.0" encoding="utf-8"?>
<!-- Generator: Adobe Illustrator 24.0.2, SVG Export Plug-In . SVG Version: 6.00 Build 0)  -->
<svg version="1.1" id="Layer_1" xmlns="http://www.w3.org/2000/svg" xmlns:xlink="http://www.w3.org/1999/xlink" x="0px" y="0px"
	 viewBox="0 0 24 24" style="enable-background:new 0 0 24 24;" xml:space="preserve">
<style type="text/css">
	.st0{fill-rule:evenodd;clip-rule:evenodd;fill:#596482;}
</style>
<path class="st0" d="M12.4,20.2l6-9.1c0.2-0.3,0.1-0.8-0.2-1C18.1,10,17.9,10,17.8,10h-4.7V4.4c0-0.4-0.3-0.8-0.8-0.8
	c-0.3,0-0.5,0.1-0.7,0.3l-6,9.1c-0.2,0.3-0.1,0.8,0.2,1C5.9,14,6.1,14,6.2,14h4.7v5.7c0,0.4,0.3,0.8,0.8,0.8
	C12,20.6,12.2,20.4,12.4,20.2z"/>
</svg>
