<?xml version="1.0" encoding="utf-8"?>
<!-- Generator: Adobe Illustrator 24.0.2, SVG Export Plug-In . SVG Version: 6.00 Build 0)  -->
<svg version="1.1" id="Layer_1" xmlns="http://www.w3.org/2000/svg" xmlns:xlink="http://www.w3.org/1999/xlink" x="0px" y="0px"
	 viewBox="0 0 17 17" style="enable-background:new 0 0 17 17;" xml:space="preserve">
<style type="text/css">
	.st0{fill:#596482;}
</style>
<g>
	<path class="st0" d="M6,12.9L2.9,9c-0.2-0.3-0.2-0.7,0-1L6,4.1L7.1,5L4.7,8c-0.2,0.3-0.2,0.7,0,1l2.4,3L6,12.9z"/>
	<path class="st0" d="M6,13.3L2.7,9.2c-0.3-0.4-0.3-0.9,0-1.3L6,3.7L7.4,5L4.9,8.2c-0.1,0.2-0.1,0.5,0,0.7L7.4,12L6,13.3z M6,4.5
		L3.1,8.2C3,8.4,3,8.6,3.1,8.9L6,12.5L6.8,12L4.5,9.2c-0.3-0.4-0.3-0.9,0-1.3L6.8,5L6,4.5z"/>
</g>
<g>
	<path class="st0" d="M11,12.9L9.9,12l2.4-3c0.2-0.3,0.2-0.7,0-1L9.9,5L11,4.1L14.1,8c0.2,0.3,0.2,0.7,0,1L11,12.9z"/>
	<path class="st0" d="M11,13.3L9.6,12l2.6-3.2c0.1-0.2,0.1-0.5,0-0.7L9.6,5L11,3.7l3.3,4.1c0.3,0.4,0.3,0.9,0,1.3L11,13.3z M10.2,12
		l0.7,0.6l2.9-3.7c0.1-0.2,0.1-0.5,0-0.7L11,4.5L10.2,5l2.2,2.8c0.3,0.4,0.3,0.9,0,1.3L10.2,12z"/>
</g>
</svg>
