<?xml version="1.0" encoding="utf-8"?>
<!-- Generator: Adobe Illustrator 24.0.2, SVG Export Plug-In . SVG Version: 6.00 Build 0)  -->
<svg version="1.1" id="Layer_1" xmlns="http://www.w3.org/2000/svg" xmlns:xlink="http://www.w3.org/1999/xlink" x="0px" y="0px"
	 viewBox="0 0 21 21" style="enable-background:new 0 0 21 21;" xml:space="preserve">
<style type="text/css">
	.st0{fill:#596482;}
</style>
<g>
	<path class="st0" d="M11.7,16.7c0,0-0.1,0-0.1,0c-0.5-0.1-0.8-0.4-0.9-0.8L8.7,8.1l-1.4,2.9c-0.2,0.4-0.6,0.6-1,0.6H3.7
		c-0.6,0-1.1-0.5-1.1-1.1S3,9.5,3.7,9.5h2L8,4.3c0.2-0.4,0.6-0.7,1.1-0.6c0.5,0,0.9,0.4,1,0.8l2,8l1.3-2.4c0.2-0.4,0.6-0.6,1-0.6
		h2.7c0.6,0,1.1,0.5,1.1,1.1c0,0.6-0.5,1.1-1.1,1.1h-2l-2.4,4.3C12.5,16.5,12.1,16.7,11.7,16.7z"/>
</g>
</svg>
