<?xml version="1.0" encoding="utf-8"?>
<!-- Generator: Adobe Illustrator 24.0.2, SVG Export Plug-In . SVG Version: 6.00 Build 0)  -->
<svg version="1.1" id="Layer_1" xmlns="http://www.w3.org/2000/svg" xmlns:xlink="http://www.w3.org/1999/xlink" x="0px" y="0px"
	 viewBox="0 0 24 24" style="enable-background:new 0 0 24 24;" xml:space="preserve">
<style type="text/css">
	.st0{fill-rule:evenodd;clip-rule:evenodd;fill:#596482;}
</style>
<path class="st0" d="M4.7,5.7h2.3c0.5,0,0.7,0.7,0.7,1.2v10.4c0,0.8-0.3,1.2-0.7,1.2H4.7c-0.5,0-0.7-0.7-0.7-1.2V7
	C4,6.2,4.2,5.7,4.7,5.7z M10,5.7h2.3c0.5,0,0.7,0.7,0.7,1.2v10.4c0,0.8-0.3,1.2-0.7,1.2H10c-0.5,0-0.7-0.7-0.7-1.2V7
	C9.3,6.2,9.5,5.7,10,5.7z M14.6,6.2l2.3-0.6c0.5-0.1,0.8,0.5,1,1l2.6,10.1c0.2,0.8,0,1.2-0.4,1.3l-2.2,0.6c-0.5,0.1-0.8-0.5-1-1
	l-2.6-10C14,6.9,14.2,6.3,14.6,6.2z"/>
</svg>
