<svg width="21" height="21" viewBox="0 0 21 21" xmlns="http://www.w3.org/2000/svg"><path d="M10.48.26C4.692.26 0 4.96 0 10.76c0 4.64 3.003 8.574 7.167 9.963.524.096.716-.228.716-.506 0-.25-.01-.91-.014-1.786-2.917.635-3.532-1.407-3.532-1.407-.476-1.213-1.163-1.536-1.163-1.536-.952-.65.072-.638.072-.638 1.05.073 1.605 1.08 1.605 1.08.935 1.606 2.453 1.142 3.05.874.095-.68.366-1.142.665-1.404-2.327-.265-4.773-1.166-4.773-5.19 0-1.146.408-2.083 1.078-2.817-.107-.266-.467-1.333.103-2.78 0 0 .88-.28 2.882 1.077.836-.232 1.732-.35 2.624-.353.89.004 1.787.12 2.624.353 2-1.358 2.88-1.076 2.88-1.076.57 1.446.21 2.513.104 2.78.67.733 1.077 1.67 1.077 2.816 0 4.034-2.45 4.922-4.785 5.182.376.324.71.965.71 1.944 0 1.404-.01 2.536-.01 2.88 0 .28.187.608.72.505 4.16-1.39 7.16-5.323 7.16-9.96 0-5.8-4.693-10.5-10.48-10.5z" fill-rule="nonzero" fill="#FFF"></path></svg>