<?xml version="1.0" encoding="utf-8"?>
<!-- Generator: Adobe Illustrator 24.0.2, SVG Export Plug-In . SVG Version: 6.00 Build 0)  -->
<svg version="1.1" id="Layer_1" xmlns="http://www.w3.org/2000/svg" xmlns:xlink="http://www.w3.org/1999/xlink" x="0px" y="0px"
	 viewBox="0 0 20 20" style="enable-background:new 0 0 20 20;" xml:space="preserve">
<style type="text/css">
	.st0{fill:#9EA7B3;}
</style>
<path class="st0" d="M10,2.5c-4.1,0-7.5,3.4-7.5,7.5s3.4,7.5,7.5,7.5s7.5-3.4,7.5-7.5S14.1,2.5,10,2.5z M10,4.2
	c1.6,0,3.1,0.7,4.1,1.7l-9.2,6.9C4.4,12,4.2,11,4.2,10C4.2,6.8,6.8,4.2,10,4.2z M10,15.8c-1.6,0-3.1-0.7-4.1-1.7l9.2-6.9
	C15.6,8,15.8,9,15.8,10C15.8,13.2,13.2,15.8,10,15.8z"/>
</svg>
