<?xml version="1.0" encoding="utf-8"?>
<!-- Generator: Adobe Illustrator 24.0.2, SVG Export Plug-In . SVG Version: 6.00 Build 0)  -->
<svg version="1.1" id="Layer_1" xmlns="http://www.w3.org/2000/svg" xmlns:xlink="http://www.w3.org/1999/xlink" x="0px" y="0px"
	 viewBox="0 0 215.2 215.3" style="enable-background:new 0 0 215.2 215.3;" xml:space="preserve">
<style type="text/css">
	.st0{fill:#FFA500;}
	.st1{fill:#FFFFFF;}
</style>
<circle id="XMLID_2_" class="st0" cx="107.6" cy="107.6" r="107.6"/>
<g>
	<path class="st1" d="M40.6,150.6l67-106.8l67,106.8H40.6z M149.6,137.4l-42-66.9l-42,66.9H149.6z"/>
	<path class="st1" d="M107.6,47.6l63.4,101H44.2L107.6,47.6 M62,139.4h91.2l-45.6-72.6L62,139.4 M107.6,40.1l-3.4,5.4l-63.4,101
		l-3.8,6.1h7.2H171h7.2l-3.8-6.1L111,45.5L107.6,40.1L107.6,40.1z M69.2,135.4l38.4-61.1l38.4,61.1H69.2L69.2,135.4z"/>
</g>
</svg>
