<?xml version="1.0" encoding="utf-8"?>
<!-- Generator: Adobe Illustrator 24.0.2, SVG Export Plug-In . SVG Version: 6.00 Build 0)  -->
<svg version="1.1" id="Layer_1" xmlns="http://www.w3.org/2000/svg" xmlns:xlink="http://www.w3.org/1999/xlink" x="0px" y="0px"
	 viewBox="0 0 24 24" style="enable-background:new 0 0 24 24;" xml:space="preserve">
<style type="text/css">
	.st0{fill:none;}
	.st1{fill-rule:evenodd;clip-rule:evenodd;fill:#586382;}
	.st2{opacity:0.3;fill-rule:evenodd;clip-rule:evenodd;fill:#B0BBCE;enable-background:new    ;}
</style>
<g>
	<rect class="st0" width="24" height="24"/>
	<path class="st1" d="M16.4,19.9l5.8-8.8c0.2-0.3,0.1-0.8-0.2-1C21.9,10,21.7,10,21.6,10H17V4.5c0-0.4-0.3-0.8-0.8-0.8
		c-0.3,0-0.5,0.1-0.6,0.3l-5.8,8.8c-0.2,0.3-0.1,0.8,0.2,1c0.1,0.1,0.3,0.1,0.4,0.1H15v5.5c0,0.4,0.3,0.8,0.8,0.8
		C16,20.3,16.2,20.1,16.4,19.9z"/>
	<path class="st2" d="M4.5,5h5C10.3,5,11,5.7,11,6.5S10.3,8,9.5,8h-5C3.7,8,3,7.3,3,6.5S3.7,5,4.5,5z M4.5,17h5
		c0.8,0,1.5,0.7,1.5,1.5S10.3,20,9.5,20h-5C3.7,20,3,19.3,3,18.5S3.7,17,4.5,17z M2.5,11h4C7.3,11,8,11.7,8,12.5S7.3,14,6.5,14h-4
		C1.7,14,1,13.3,1,12.5S1.7,11,2.5,11z"/>
</g>
</svg>
