<?xml version="1.0" encoding="utf-8"?>
<!-- Generator: Adobe Illustrator 24.0.2, SVG Export Plug-In . SVG Version: 6.00 Build 0)  -->
<svg version="1.1" id="Layer_1" xmlns="http://www.w3.org/2000/svg" xmlns:xlink="http://www.w3.org/1999/xlink" x="0px" y="0px"
	 viewBox="0 0 20.3 20.3" style="enable-background:new 0 0 20.3 20.3;" xml:space="preserve">
<style type="text/css">
	.st0{opacity:0.5;fill:#939AA0;}
	.st1{fill:#FFFFFF;}
</style>
<circle class="st0" cx="10.2" cy="10.2" r="10"/>
<g>
	<path class="st1" d="M10.1,16.4c-0.4,0-0.7-0.1-1-0.4c-0.3-0.2-0.4-0.6-0.4-1c0-0.4,0.1-0.7,0.4-1c0.3-0.3,0.6-0.4,1-0.4
		c0.4,0,0.7,0.1,1,0.4c0.3,0.3,0.4,0.6,0.4,1c0,0.4-0.1,0.8-0.4,1C10.7,16.2,10.4,16.4,10.1,16.4z"/>
	<g>
		<path class="st1" d="M11.1,12.2H8.8c0-0.7,0.1-1.3,0.4-1.9c0.2-0.5,0.7-1.1,1.5-1.6c0.4-0.3,0.7-0.6,0.8-0.7
			c0.1-0.2,0.2-0.4,0.2-0.7c0-0.4-0.1-0.8-0.4-1C11,6,10.6,5.9,10.1,5.9c-0.9,0-1.6,0.5-1.9,1.5L5.9,6.7c0.7-2,2.1-2.9,4.3-2.9
			c1.1,0,2.1,0.3,2.9,0.8S14.4,6,14.4,7c0,1.1-0.5,1.9-1.4,2.6c-0.8,0.5-1.3,1-1.5,1.3C11.2,11.3,11.1,11.7,11.1,12.2z"/>
	</g>
</g>
</svg>
