<?xml version="1.0" encoding="utf-8"?>
<!-- Generator: Adobe Illustrator 24.0.2, SVG Export Plug-In . SVG Version: 6.00 Build 0)  -->
<svg version="1.1" id="Layer_1" xmlns="http://www.w3.org/2000/svg" xmlns:xlink="http://www.w3.org/1999/xlink" x="0px" y="0px"
	 viewBox="0 0 24 24" style="enable-background:new 0 0 24 24;" xml:space="preserve">
<style type="text/css">
	.st0{fill-rule:evenodd;clip-rule:evenodd;fill:#E7EBF0;enable-background:new    ;}
	.st1{fill:#586382;}
</style>
<path class="st0" d="M3.4,2.7l8.2-1.5c0.3,0,0.5,0,0.8,0l8.2,1.5v9.9c0,3.1-1.6,6.1-4.3,7.7l-3.7,2.3c-0.3,0.2-0.8,0.2-1.1,0
	l-3.7-2.3c-2.7-1.7-4.3-4.6-4.3-7.7L3.4,2.7L3.4,2.7z"/>
<path class="st1" d="M12.3,6.8l1.2,2.4c0,0.1,0.1,0.1,0.2,0.1l2.6,0.4c0.2,0,0.3,0.3,0.1,0.4L14.5,12c-0.1,0.1-0.1,0.1-0.1,0.2
	l0.5,2.6c0,0.2-0.2,0.4-0.4,0.3l-2.4-1.2c-0.1,0-0.2,0-0.2,0l-2.4,1.2c-0.2,0.1-0.4-0.1-0.4-0.3l0.5-2.6c0-0.1,0-0.2-0.1-0.2
	l-1.9-1.9C7.5,10,7.6,9.7,7.8,9.7l2.6-0.4c0.1,0,0.2-0.1,0.2-0.1l1.2-2.4C11.9,6.6,12.2,6.6,12.3,6.8z"/>
</svg>
