<?xml version="1.0" encoding="utf-8"?>
<!-- Generator: Adobe Illustrator 24.0.2, SVG Export Plug-In . SVG Version: 6.00 Build 0)  -->
<svg version="1.1" id="Layer_1" xmlns="http://www.w3.org/2000/svg" xmlns:xlink="http://www.w3.org/1999/xlink" x="0px" y="0px"
	 viewBox="0 0 24 24" style="enable-background:new 0 0 24 24;" xml:space="preserve">
<style type="text/css">
	.st0{opacity:0.3;fill-rule:evenodd;clip-rule:evenodd;fill:#B0BBCE;enable-background:new    ;}
	.st1{fill:#586382;}
</style>
<path class="st0" d="M3.4,2.7l8.2-1.5c0.3,0,0.5,0,0.8,0l8.2,1.5v9.9c0,3.1-1.6,6.1-4.3,7.7l-3.7,2.3c-0.3,0.2-0.8,0.2-1.1,0
	l-3.7-2.3c-2.7-1.7-4.3-4.6-4.3-7.7L3.4,2.7L3.4,2.7z"/>
<g transform="translate(0.000000,720.000000) scale(0.100000,-0.100000)">
	<path class="st1" d="M119,7133.1c-0.3-0.2-0.9-0.7-1.4-1c-0.5-0.3-1.3-0.9-1.8-1.2c-0.5-0.4-1.7-1.2-2.7-1.9
		c-1-0.7-2.2-1.5-2.6-1.9c-1-0.7-12.6-8.9-17.6-12.5c-4.5-3.1-5.5-3.9-6.4-4.5c-0.4-0.3-1.5-1.1-2.5-1.8c-1-0.7-2-1.4-2.3-1.6
		c-0.5-0.4-1.1-0.8-3.9-2.8c-0.8-0.5-1.7-1.2-2-1.4c-0.3-0.2-0.9-0.7-1.3-1c-0.4-0.3-1-0.9-1.4-1.4l-0.6-0.9v-1.7l0-1.7l0.8-1.1
		c1.9-2.7,2.6-3.4,4.1-3.9c1.1-0.4,2.2-0.2,3,0.4c0.4,0.3,1,0.7,1.5,1c2.3,1.6,6.2,4.3,14.3,10.1c2.5,1.8,5.2,3.7,6.1,4.3
		c0.9,0.6,2.2,1.6,3.1,2.2c0.8,0.6,1.9,1.3,2.3,1.6c0.4,0.3,1.2,0.9,1.7,1.2c0.5,0.4,1.3,0.9,1.7,1.2c1.8,1.3,2.9,2,5.8,4.1
		c1.7,1.2,3.1,2.2,3.2,2.2c0.1,0,4.3-3,7.6-5.3c0.6-0.4,1.5-1.1,2.1-1.5c0.6-0.4,2.7-1.9,4.6-3.2c1.9-1.4,5.9-4.2,8.8-6.2
		c3-2.1,6.3-4.4,7.4-5.2c1.1-0.8,2.2-1.6,2.5-1.8c0.5-0.3,1.3-0.9,3.7-2.6c0.5-0.4,1.6-1.1,2.4-1.7l1.4-1h1c0.8,0,1.2,0.1,1.8,0.4
		c1,0.5,1.5,0.9,2.7,2.6c1.6,2.2,1.6,2.2,1.6,3.9v1.5l-0.6,0.9c-0.6,1-0.1,0.5-10.3,7.8c-2.9,2.1-3.6,2.7-4.3,4.1
		c-1,1.9-1,1.5-1.1,10.1l-0.1,7.8l-0.3,0.7c-0.4,0.8-1.4,1.9-2.1,2.2c-1.2,0.6-1.7,0.7-4.3,0.7c-2.7,0-3.8-0.2-4.8-0.9
		c-0.7-0.5-1.7-1.8-1.9-2.4c-0.1-0.3-0.2-1.9-0.3-3.6c-0.1-4.9-0.2-4.9-4.7-1.7c-5,3.5-10.3,7.3-11.2,8
		C120.3,7133.7,119.8,7133.7,119,7133.1z"/>
	<path class="st1" d="M118.1,7112.5c-0.8-0.6-1.6-1.1-1.8-1.3c-0.2-0.2-1.3-0.9-2.4-1.7c-1-0.8-2.3-1.7-2.9-2
		c-0.5-0.4-3.8-2.7-7.4-5.2c-3.5-2.5-7-4.9-7.7-5.4c-0.7-0.5-1.7-1.2-2.3-1.6c-0.5-0.4-1.5-1.1-2.1-1.5c-0.6-0.4-1.5-1.1-2-1.4
		l-1-0.7v-18.3c0-12.7,0-18.6,0.2-19.3c0.3-1.7,1.5-3.9,2.9-5c0.8-0.7,2.3-1.6,3.1-1.8c0.3-0.1,0.7-0.2,0.7-0.3
		c0-0.1,3.7-0.1,8.1-0.1c7.1,0,8.1,0,8.3,0.2c0.2,0.2,0.2,1.4,0.2,10.7v10.5h7.8h7.8v-10.5c0-9.4,0-10.5,0.2-10.7
		c0.2-0.2,1.1-0.2,8.2-0.2h8l1,0.4c1.5,0.6,2.3,1.1,3.3,2c1.1,1.1,2,2.4,2.4,3.8l0.4,1.1v18.7v18.7l-0.4,0.3
		c-0.2,0.2-0.7,0.6-1.2,0.9c-0.5,0.3-1.4,0.9-1.9,1.4c-1.5,1-3.3,2.4-4.8,3.4c-0.6,0.5-1.7,1.2-2.3,1.6c-0.6,0.4-1.6,1.1-2.2,1.5
		c-0.6,0.4-2.6,1.8-4.3,3.1c-1.8,1.3-4.7,3.4-6.5,4.6c-1.8,1.3-3.7,2.6-4.3,3C119.9,7114,120.1,7113.9,118.1,7112.5z"/>
</g>
</svg>
