<?xml version="1.0" encoding="utf-8"?>
<!-- Generator: Adobe Illustrator 24.0.2, SVG Export Plug-In . SVG Version: 6.00 Build 0)  -->
<svg version="1.1" id="Layer_1" xmlns="http://www.w3.org/2000/svg" xmlns:xlink="http://www.w3.org/1999/xlink" x="0px" y="0px"
	 viewBox="0 0 19 19" style="enable-background:new 0 0 19 19;" xml:space="preserve">
<style type="text/css">
	.st0{fill:#2A407D;}
	.st1{fill:#FFFFFF;stroke:#FFFFFF;stroke-width:0.5;stroke-miterlimit:10;}
	.st2{fill:#FFFFFF;stroke:#FFFFFF;stroke-width:0.75;stroke-miterlimit:10;}
	.st3{fill:#FFFFFF;}
</style>
<g>
	<circle class="st0" cx="9.5" cy="9.5" r="9.5"/>
</g>
<g>
	
		<rect x="35.3" y="-11.4" transform="matrix(0.7071 0.7071 -0.7071 0.7071 6.4195 -27.2361)" class="st1" width="1.6" height="11.1"/>
	
		<rect x="35.3" y="-11.4" transform="matrix(-0.7071 0.7071 -0.7071 -0.7071 57.4537 -35.5361)" class="st1" width="1.6" height="11.1"/>
</g>
<rect x="36" y="-0.5" transform="matrix(0.7071 0.7071 -0.7071 0.7071 14.3161 -24.5621)" class="st1" width="1.6" height="11.1"/>
<rect x="36" y="-0.5" transform="matrix(-0.7071 0.7071 -0.7071 -0.7071 66.3692 -17.491)" class="st1" width="1.6" height="11.1"/>
<g>
	
		<rect x="8.9" y="7.3" transform="matrix(-1 -1.224647e-16 1.224647e-16 -1 19.3513 22.1077)" class="st2" width="1.6" height="7.6"/>
	<circle class="st3" cx="9.7" cy="4.8" r="1.3"/>
</g>
</svg>
