<?xml version="1.0" encoding="utf-8"?>
<!-- Generator: Adobe Illustrator 24.0.2, SVG Export Plug-In . SVG Version: 6.00 Build 0)  -->
<svg version="1.1" id="Layer_1" xmlns="http://www.w3.org/2000/svg" xmlns:xlink="http://www.w3.org/1999/xlink" x="0px" y="0px"
	 viewBox="0 0 24 24" style="enable-background:new 0 0 24 24;" xml:space="preserve">
<style type="text/css">
	.st0{fill:#596482;}
</style>
<path class="st0" d="M2.8,11.2v3.8c0,0.5,0.4,0.9,0.9,0.9h0.9v-5.6H3.7C3.2,10.2,2.8,10.6,2.8,11.2z M16.4,6.5h-3.3V4.6
	c0-0.5-0.4-0.9-0.9-0.9c-0.5,0-0.9,0.4-0.9,0.9v1.9H7.9c-1.3,0-2.3,1-2.3,2.3v8c0,1,0.8,1.9,1.9,1.9h9.4c1,0,1.9-0.8,1.9-1.9v-8
	C18.7,7.5,17.7,6.5,16.4,6.5z M10.3,15.8H8.4v-0.9h1.9V15.8z M9.3,12.3c-0.6,0-1.2-0.5-1.2-1.2S8.7,10,9.3,10s1.2,0.5,1.2,1.2
	S10,12.3,9.3,12.3z M13.1,15.8h-1.9v-0.9h1.9V15.8z M15.9,15.8H14v-0.9h1.9V15.8z M15,12.3c-0.6,0-1.2-0.5-1.2-1.2S14.3,10,15,10
	s1.2,0.5,1.2,1.2S15.6,12.3,15,12.3z M20.6,10.2h-0.9v5.6h0.9c0.5,0,0.9-0.4,0.9-0.9v-3.8C21.5,10.6,21.1,10.2,20.6,10.2z"/>
</svg>
