<?xml version="1.0" encoding="utf-8"?>
<!-- Generator: Adobe Illustrator 24.0.2, SVG Export Plug-In . SVG Version: 6.00 Build 0)  -->
<svg version="1.1" id="Layer_1" xmlns="http://www.w3.org/2000/svg" xmlns:xlink="http://www.w3.org/1999/xlink" x="0px" y="0px"
	 viewBox="0 0 24 24" style="enable-background:new 0 0 24 24;" xml:space="preserve">
<style type="text/css">
	.st0{fill-rule:evenodd;clip-rule:evenodd;fill:#596482;}
</style>
<path class="st0" d="M5,10h2c0.6,0,1,0.4,1,1v2c0,0.6-0.4,1-1,1H5c-0.6,0-1-0.4-1-1v-2C4,10.4,4.4,10,5,10z M11,4h2c0.6,0,1,0.4,1,1
	v2c0,0.6-0.4,1-1,1h-2c-0.6,0-1-0.4-1-1V5C10,4.4,10.4,4,11,4z M11,10h2c0.6,0,1,0.4,1,1v2c0,0.6-0.4,1-1,1h-2c-0.6,0-1-0.4-1-1v-2
	C10,10.4,10.4,10,11,10z M17,4h2c0.6,0,1,0.4,1,1v2c0,0.6-0.4,1-1,1h-2c-0.6,0-1-0.4-1-1V5C16,4.4,16.4,4,17,4z M17,10h2
	c0.6,0,1,0.4,1,1v2c0,0.6-0.4,1-1,1h-2c-0.6,0-1-0.4-1-1v-2C16,10.4,16.4,10,17,10z M5,16h2c0.6,0,1,0.4,1,1v2c0,0.6-0.4,1-1,1H5
	c-0.6,0-1-0.4-1-1v-2C4,16.4,4.4,16,5,16z M11,16h2c0.6,0,1,0.4,1,1v2c0,0.6-0.4,1-1,1h-2c-0.6,0-1-0.4-1-1v-2
	C10,16.4,10.4,16,11,16z M17,16h2c0.6,0,1,0.4,1,1v2c0,0.6-0.4,1-1,1h-2c-0.6,0-1-0.4-1-1v-2C16,16.4,16.4,16,17,16z"/>
</svg>
