<?xml version="1.0" encoding="utf-8"?>
<!-- Generator: Adobe Illustrator 24.0.2, SVG Export Plug-In . SVG Version: 6.00 Build 0)  -->
<svg version="1.1" id="Layer_1" xmlns="http://www.w3.org/2000/svg" xmlns:xlink="http://www.w3.org/1999/xlink" x="0px" y="0px"
	 viewBox="0 0 24 24" style="enable-background:new 0 0 24 24;" xml:space="preserve">
<style type="text/css">
	.st0{fill-rule:evenodd;clip-rule:evenodd;fill:#596482;}
</style>
<path class="st0" d="M4.5,4.5h15c0.6,0,0.8,0.4,0.8,0.8v1.8C20.3,7.7,20,8,19.5,8h-15C3.9,8,3.7,7.6,3.7,7.1V5.3
	C3.7,4.9,4,4.5,4.5,4.5z"/>
<path class="st0" d="M4.5,9.8h2.6c0.6,0,0.8,0.5,0.8,0.9v7.9c0,0.6-0.4,0.9-0.8,0.9H4.5c-0.6,0-0.8-0.5-0.8-0.9v-7.8
	C3.7,10.2,4,9.8,4.5,9.8z M10.7,9.8h2.6c0.6,0,0.8,0.5,0.8,0.9v7.9c0,0.6-0.4,0.9-0.8,0.9h-2.6c-0.6,0-0.8-0.5-0.8-0.9v-7.8
	C9.8,10.2,10.1,9.8,10.7,9.8z M16.8,9.8h2.7c0.6,0,0.8,0.5,0.8,0.9v7.9c0,0.6-0.4,0.9-0.8,0.9h-2.6c-0.6,0-0.8-0.5-0.8-0.9v-7.8
	C15.9,10.2,16.3,9.8,16.8,9.8z"/>
</svg>
