<?xml version="1.0" encoding="utf-8"?>
<!-- Generator: Adobe Illustrator 24.0.2, SVG Export Plug-In . SVG Version: 6.00 Build 0)  -->
<svg version="1.1" id="Layer_1" xmlns="http://www.w3.org/2000/svg" xmlns:xlink="http://www.w3.org/1999/xlink" x="0px" y="0px"
	 viewBox="0 0 24 24" style="enable-background:new 0 0 24 24;" xml:space="preserve">
<style type="text/css">
	.st0{fill:#596482;}
</style>
<g>
	<path class="st0" d="M12.9,16.7c-0.3,0-0.6,0.2-0.9,0.2c-2.6,0-4.6-2.1-4.6-4.6v-0.6l0.3,0.3c0.2,0.2,0.5,0.3,0.8,0.3
		c0.3,0,0.6-0.2,0.8-0.3c0.5-0.5,0.5-1.3,0-1.6L7,7.8c-0.5-0.5-1.3-0.5-1.6,0L3,10c-0.5,0.5-0.5,1.3,0,1.6c0.5,0.5,1.3,0.5,1.6,0
		l0.3-0.3v0.6c0,3.8,3.2,7,7,7c0.5,0,0.9,0,1.5-0.2c0.6-0.2,1.1-0.8,0.9-1.5C14.1,16.8,13.6,16.6,12.9,16.7z"/>
	<path class="st0" d="M19.2,12.4L19,12.6V12c0-3.8-3.2-7-7-7c-0.5,0-0.9,0-1.5,0.2C9.8,5.3,9.4,6,9.5,6.6s0.8,1.1,1.5,0.9
		c0.3,0,0.6-0.2,0.9-0.2c2.6,0,4.6,2.1,4.6,4.6v0.6l-0.3-0.3c-0.5-0.5-1.3-0.5-1.6,0c-0.5,0.5-0.5,1.3,0,1.6l2.4,2.4
		c0.2,0.2,0.5,0.3,0.8,0.3s0.6-0.2,0.8-0.3l2.4-2.4c0.5-0.5,0.5-1.3,0-1.6C20.5,11.9,19.7,11.9,19.2,12.4L19.2,12.4z"/>
</g>
</svg>
