<svg width="22" height="21" viewBox="0 0 22 21" xmlns="http://www.w3.org/2000/svg"><path d="M10.84 0C5.052 0 .36 4.7.36 10.5S5.052 21 10.84 21s10.48-4.7 10.48-10.5S16.628 0 10.84 0zM7.946 15.74H5.772v-7h2.174v7zM6.86 7.783c-.698 0-1.26-.565-1.26-1.262 0-.695.562-1.26 1.26-1.26.695 0 1.26.565 1.26 1.26 0 .698-.565 1.263-1.26 1.263zm9.22 7.957h-2.172v-3.404c0-.812-.013-1.856-1.128-1.856-1.13 0-1.302.885-1.302 1.798v3.462h-2.17v-7h2.082v.957h.03c.29-.55.998-1.13 2.055-1.13 2.2 0 2.605 1.45 2.605 3.334v3.84z" fill-rule="nonzero" fill="#FFF"></path></svg>