<?xml version="1.0" encoding="utf-8"?>
<!-- Generator: Adobe Illustrator 24.0.2, SVG Export Plug-In . SVG Version: 6.00 Build 0)  -->
<svg version="1.1" id="Layer_1" xmlns="http://www.w3.org/2000/svg" xmlns:xlink="http://www.w3.org/1999/xlink" x="0px" y="0px"
	 viewBox="0 0 24 24" style="enable-background:new 0 0 24 24;" xml:space="preserve">
<style type="text/css">
	.st0{opacity:0.3;fill-rule:evenodd;clip-rule:evenodd;fill:#B0BBCE;enable-background:new    ;}
	.st1{fill-rule:evenodd;clip-rule:evenodd;fill:#586382;}
</style>
<path class="st0" d="M3.4,2.7l8.2-1.5c0.3,0,0.5,0,0.8,0l8.2,1.5v9.9c0,3.1-1.6,6.1-4.3,7.7l-3.7,2.3c-0.3,0.2-0.8,0.2-1.1,0
	l-3.7-2.3c-2.7-1.7-4.3-4.6-4.3-7.7V2.7z"/>
<path class="st1" d="M14.7,10.2c0.6,0,1.1,0.5,1.1,1.1v3.2c0,0.6-0.5,1.1-1.1,1.1H9.3c-0.6,0-1.1-0.5-1.1-1.1v-3.2
	c0-0.6,0.5-1.1,1.1-1.1V9.6c0-1.5,1.2-2.7,2.7-2.7s2.7,1.2,2.7,2.7V10.2z M12,8c-0.9,0-1.6,0.7-1.6,1.6v0.5h3.2V9.6
	C13.6,8.7,12.9,8,12,8z"/>
</svg>
