<svg width="22" height="21" viewBox="0 0 22 21" xmlns="http://www.w3.org/2000/svg"><path d="M11.16 0C5.372 0 .68 4.7.68 10.5S5.372 21 11.16 21s10.48-4.7 10.48-10.5S16.948 0 11.16 0zm4.167 8.36c.004.09.006.184.006.277 0 2.847-2.162 6.13-6.117 6.13-1.214 0-2.344-.357-3.296-.968.168.02.34.03.513.03 1.007 0 1.934-.346 2.67-.923-.94-.018-1.735-.64-2.008-1.496.13.026.266.04.404.04.195 0 .385-.027.566-.076-.984-.198-1.725-1.07-1.725-2.113v-.026c.29.162.623.26.975.27-.577-.387-.957-1.046-.957-1.793 0-.394.106-.764.292-1.082 1.06 1.303 2.644 2.16 4.43 2.25-.035-.157-.054-.322-.054-.49 0-1.19.962-2.155 2.15-2.155.618 0 1.177.262 1.57.68.49-.096.95-.275 1.364-.522-.16.504-.5.926-.945 1.193.435-.052.85-.168 1.235-.34-.288.433-.653.812-1.073 1.116z" fill-rule="nonzero" fill="#FFF"></path></svg>